<?xml version="1.0" standalone="no"?>
<!DOCTYPE svg PUBLIC "-//W3C//DTD SVG 20010904//EN"
 "http://www.w3.org/TR/2001/REC-SVG-20010904/DTD/svg10.dtd">
<svg version="1.0" xmlns="http://www.w3.org/2000/svg"
 width="71" height="71" viewBox="0 0 504.000000 491.000000"
 preserveAspectRatio="xMidYMid meet">

<g transform="translate(0.000000,491.000000) scale(0.100000,-0.100000)"
fill="#000000" stroke="none">
<path d="M3095 4830 c-22 -5 -59 -9 -81 -9 -47 -1 -69 -20 -61 -53 3 -13 22
-63 43 -113 l37 -90 -11 -115 c-6 -63 -34 -220 -62 -349 -62 -284 -80 -399
-80 -511 0 -47 -9 -148 -20 -225 -52 -372 -74 -831 -67 -1358 5 -385 17 -530
53 -669 14 -54 13 -60 -6 -95 -22 -42 -26 -93 -9 -125 9 -17 17 -19 51 -14 38
6 43 4 88 -38 49 -45 90 -61 146 -54 30 3 32 7 50 105 3 13 14 25 27 28 88 20
610 67 842 76 149 5 304 13 345 18 160 20 270 30 398 37 76 4 136 12 141 18
10 13 28 91 36 163 10 75 -12 195 -52 298 -51 128 -53 129 -111 72 -26 -26
-63 -52 -82 -58 -19 -6 -132 -17 -250 -24 -126 -8 -236 -21 -266 -30 -29 -8
-161 -29 -295 -45 -321 -40 -526 -69 -555 -80 -29 -11 -29 -38 -4 251 59 688
120 1142 195 1443 19 78 49 231 65 341 60 395 130 783 160 885 5 19 10 53 10
76 0 38 -4 43 -62 88 -74 55 -199 118 -283 141 -69 19 -271 28 -330 15z"/>
<path d="M2101 4695 c-164 -36 -421 -140 -586 -237 -417 -246 -694 -492 -810
-718 -65 -127 -90 -287 -62 -393 29 -109 124 -231 253 -323 74 -54 283 -155
429 -209 419 -154 677 -303 742 -428 50 -97 -18 -234 -184 -369 -164 -134
-310 -215 -618 -343 -314 -131 -479 -178 -539 -154 -52 21 -66 38 -66 85 0 71
75 185 229 349 96 103 151 183 151 223 0 22 -2 22 -129 22 -159 0 -248 -24
-356 -96 -179 -120 -375 -368 -455 -576 -26 -67 -30 -90 -30 -178 0 -87 3
-107 24 -148 81 -157 231 -231 448 -218 273 15 754 181 1223 420 294 151 531
322 663 480 238 286 301 481 213 659 -65 134 -258 304 -522 462 -159 95 -408
222 -509 260 -106 39 -240 109 -287 150 -56 48 -73 89 -73 175 0 106 30 162
149 281 146 145 434 328 639 405 50 20 104 29 219 39 166 15 213 30 213 68 0
41 -99 226 -149 278 -46 47 -49 49 -102 48 -30 0 -83 -7 -118 -14z"/>
<path d="M3760 225 l0 -215 105 0 c98 0 105 1 105 20 0 18 -7 20 -80 20 l-80
0 0 195 0 195 -25 0 -25 0 0 -215z"/>
<path d="M584 336 c-37 -16 -64 -51 -64 -82 0 -33 29 -62 95 -97 62 -33 80
-62 55 -93 -17 -19 -90 -18 -118 2 -26 18 -27 18 -36 -13 -19 -62 170 -56 204
6 17 32 12 76 -11 97 -12 10 -46 33 -78 49 -64 34 -77 63 -39 89 28 20 51 20
88 1 27 -14 29 -14 35 6 4 12 2 26 -3 31 -17 17 -95 19 -128 4z"/>
<path d="M2468 343 c-16 -4 -18 -19 -18 -131 l0 -126 -87 127 c-76 112 -90
127 -115 127 l-28 0 0 -165 c0 -158 1 -165 20 -165 19 0 20 7 20 126 0 69 4
123 9 120 5 -3 46 -60 91 -126 73 -107 85 -120 111 -120 l29 0 0 164 c0 91 -3
167 -7 169 -5 2 -16 2 -25 0z"/>
<path d="M1330 215 c0 -137 9 -169 51 -191 37 -18 122 -18 159 1 46 24 54 49
58 188 l4 127 -26 0 -26 0 0 -120 c0 -115 -1 -122 -25 -145 -31 -32 -96 -34
-125 -5 -18 18 -20 33 -20 145 l0 125 -25 0 -25 0 0 -125z"/>
<path d="M4550 175 l0 -165 25 0 25 0 0 165 0 165 -25 0 -25 0 0 -165z"/>
</g>
</svg>
